<svg width="191" height="192" viewBox="0 0 191 192" fill="none" xmlns="http://www.w3.org/2000/svg">
<g clip-path="url(#clip0_56_128)">
<path opacity="0.999" fill-rule="evenodd" clip-rule="evenodd" d="M91.197 -0.0463772C94.0351 -0.0463772 96.8724 -0.0463772 99.7105 -0.0463772C125.313 1.47679 147.014 11.4015 164.812 29.7275C180.836 46.9877 189.55 67.4553 190.954 91.1304C190.954 94.1607 190.954 97.19 190.954 100.22C189.566 123.801 180.913 144.207 164.997 161.438C155.733 171.231 144.892 178.744 132.469 183.977C130.815 171.764 124.8 162.412 114.424 155.919C111.92 154.432 109.267 153.273 106.466 152.441C101.941 155.19 97.0361 156.319 91.7522 155.826C89.7877 155.5 87.906 154.912 86.1073 154.064C85.2504 153.588 84.3867 153.14 83.5162 152.719C73.4283 156.29 66.1024 162.938 61.5383 172.661C59.9362 176.288 58.9028 180.061 58.4382 183.977C38.9738 175.613 23.8129 162.319 12.9554 144.093C5.05623 130.435 0.722333 115.718 -0.0462646 99.942C-0.0462646 97.0973 -0.0462646 94.2535 -0.0462646 91.4087C1.4718 65.8474 11.3118 44.1584 29.4736 26.342C46.7989 10.1024 67.3734 1.30622 91.197 -0.0463772Z" fill="#17286D"/>
<path fill-rule="evenodd" clip-rule="evenodd" d="M38.2648 38.6319C45.6236 39.733 52.4715 42.2218 58.8084 46.0986C62.9698 48.7332 66.44 52.0878 69.219 56.1623C72.1829 60.5887 74.5889 65.3191 76.437 70.3536C77.8442 74.8012 79.2322 79.2533 80.6013 83.7101C81.5141 85.8813 82.6862 87.891 84.1177 89.7391C87.1831 92.8668 90.9155 94.4436 95.3149 94.4696C99.1867 94.4955 102.626 93.3046 105.633 90.8986C107.772 88.6897 109.392 86.139 110.491 83.2464C111.718 79.1245 112.982 75.0125 114.285 70.9101C116.56 64.4614 119.768 58.556 123.909 53.1942C127.787 48.8145 132.398 45.429 137.744 43.0377C142.497 40.8467 147.463 39.3781 152.643 38.6319C153.464 45.1167 153.172 51.5476 151.764 57.9246C149.059 68.5776 143.059 76.7863 133.765 82.5507C128.456 85.7824 122.75 88.0085 116.645 89.229C114.115 90.1255 112.25 91.7796 111.047 94.1913C110.377 95.5872 110.377 96.9786 111.047 98.3652C112.742 100.707 113.883 103.304 114.47 106.157C114.688 107.978 114.873 109.802 115.026 111.629C115.638 114.328 116.132 117.05 116.506 119.791C116.764 120.493 117.073 121.173 117.432 121.832C118.923 124.329 120.219 126.926 121.318 129.623C123.085 136.029 121.589 141.548 116.83 146.18C112.005 150.22 106.576 151.303 100.543 149.426C98.6861 148.759 97.0204 147.785 95.5463 146.504C95.9766 146.119 96.393 145.718 96.7955 145.299C98.2132 143.259 99.8327 141.388 101.654 139.687C102.842 138.72 104.2 138.164 105.726 138.017C98.7546 135.239 91.7835 135.239 84.8118 138.017C86.879 138.327 88.699 139.162 90.2716 140.522C92.2336 142.178 93.8528 144.11 95.1298 146.319C95.2057 146.523 95.1595 146.693 94.991 146.829C90.0207 150.509 84.6226 151.281 78.7967 149.148C72.785 146.39 69.4382 141.706 68.7563 135.096C68.6831 132.599 69.1766 130.219 70.2369 127.954C71.2223 125.855 72.3019 123.814 73.4758 121.832C73.8657 121.112 74.2051 120.37 74.4937 119.606C74.5906 118.772 74.6831 117.937 74.7713 117.101C75.2036 114.937 75.6354 112.772 76.0669 110.609C76.0326 107.472 76.6495 104.473 77.9176 101.612C78.5892 100.295 79.3295 99.0275 80.1386 97.8087C80.5703 96.2616 80.3545 94.809 79.4908 93.4493C78.3052 91.4564 76.6241 90.0805 74.4474 89.3217C65.435 87.5626 57.5075 83.6669 50.665 77.6348C43.7024 71.0828 39.5844 63.0287 38.311 53.4725C37.7739 48.5279 37.7585 43.5809 38.2648 38.6319Z" fill="white"/>
<path fill-rule="evenodd" clip-rule="evenodd" d="M46.2231 47.629C47.7317 47.4891 49.1815 47.721 50.5724 48.3246C53.0082 49.3897 55.2292 50.781 57.2352 52.4986C63.5087 57.8272 68.3362 64.2426 71.7175 71.7449C72.7813 74.1079 73.2748 76.5813 73.1982 79.1652C72.9908 81.3983 71.7723 82.5732 69.5429 82.6899C68.2175 82.6128 66.9528 82.2881 65.7488 81.7159C63.8355 80.7888 62.0464 79.6757 60.3815 78.3768C54.0133 73.2002 49.0625 66.9085 45.5291 59.5014C44.5313 57.3457 43.8836 55.0887 43.5858 52.7304C43.3875 51.324 43.6652 50.0255 44.4186 48.8348C44.9146 48.2579 45.5161 47.856 46.2231 47.629Z" fill="#17286D"/>
<path fill-rule="evenodd" clip-rule="evenodd" d="M142.834 47.629C145.37 47.2545 146.897 48.3057 147.414 50.7826C147.572 52.752 147.326 54.6689 146.674 56.5333C145.276 60.3885 143.393 63.975 141.029 67.2928C137.694 72.0275 133.699 76.124 129.045 79.5826C127.449 80.7229 125.721 81.6196 123.863 82.2725C122.71 82.6542 121.538 82.747 120.347 82.5507C118.878 82.0362 118.061 81.0004 117.894 79.4435C117.756 77.9063 117.88 76.3912 118.265 74.8986C119.27 71.5336 120.72 68.38 122.614 65.4377C126.096 59.9058 130.43 55.1289 135.616 51.1072C137.128 50.0255 138.731 49.0979 140.428 48.3246C141.222 48.0228 142.024 47.7909 142.834 47.629Z" fill="#17286D"/>
<path fill-rule="evenodd" clip-rule="evenodd" d="M80.555 117.843C83.0385 117.753 84.6271 118.896 85.3207 121.275C85.5363 123.301 84.7807 124.832 83.0535 125.867C81.0367 126.676 79.294 126.291 77.8251 124.707C76.4021 122.421 76.6952 120.395 78.7042 118.632C79.2764 118.236 79.8933 117.973 80.555 117.843Z" fill="#17286D"/>
<path fill-rule="evenodd" clip-rule="evenodd" d="M108.964 117.843C111.418 117.692 113.037 118.775 113.823 121.09C114.139 123.77 113.014 125.485 110.445 126.238C108.707 126.471 107.304 125.9 106.235 124.522C105.01 122.355 105.303 120.423 107.114 118.725C107.678 118.303 108.295 118.009 108.964 117.843Z" fill="#17286D"/>
<path fill-rule="evenodd" clip-rule="evenodd" d="M95.2686 148.545C95.3954 148.53 95.5194 148.546 95.6388 148.591C98.2095 150.44 101.078 151.522 104.245 151.838C99.4458 154.425 94.4182 155.012 89.1611 153.6C87.8834 153.146 86.6495 152.589 85.4595 151.93C88.4495 151.776 91.2564 150.972 93.8806 149.519C94.3821 149.238 94.8448 148.913 95.2686 148.545Z" fill="white"/>
<path opacity="0.998" fill-rule="evenodd" clip-rule="evenodd" d="M132.469 183.977C132.515 184.191 132.515 184.391 132.469 184.58C121.997 188.928 111.108 191.386 99.8031 191.954C96.9038 191.954 94.0037 191.954 91.1044 191.954C79.7994 191.386 68.9107 188.928 58.4382 184.58C58.4119 184.398 58.4119 184.198 58.4382 183.977C58.9028 180.061 59.9362 176.288 61.5383 172.661C66.1024 162.938 73.4283 156.29 83.5162 152.719C84.3867 153.14 85.2504 153.588 86.1073 154.064C87.906 154.912 89.7877 155.5 91.7522 155.826C97.0361 156.319 101.941 155.19 106.466 152.441C109.267 153.273 111.92 154.432 114.424 155.919C124.8 162.412 130.815 171.764 132.469 183.977Z" fill="white"/>
<path fill-rule="evenodd" clip-rule="evenodd" d="M69.8205 172.939C70.3472 173.063 70.8716 173.203 71.3937 173.357C71.442 173.408 71.4728 173.471 71.4862 173.542C70.9332 175.481 70.4089 177.428 69.913 179.386C69.9439 179.432 69.9748 179.478 70.0056 179.525C72.5041 178.056 75.0027 176.587 77.5012 175.119C78.2364 175.199 78.9458 175.384 79.6296 175.675C77.0385 177.129 74.4474 178.581 71.8564 180.035C71.6873 180.118 71.5639 180.242 71.4862 180.406C73.1086 183.457 74.7435 186.502 76.3908 189.542C76.3445 189.573 76.2982 189.604 76.252 189.635C75.5331 189.442 74.8237 189.225 74.1236 188.986C72.6665 186.157 71.1859 183.344 69.6817 180.545C68.964 182.741 68.3317 184.967 67.7847 187.223C67.2439 187.173 66.7194 187.049 66.2115 186.852C66.1807 186.79 66.1498 186.729 66.119 186.667C67.3752 182.087 68.609 177.511 69.8205 172.939Z" fill="#17286D"/>
<path fill-rule="evenodd" clip-rule="evenodd" d="M109.612 175.258C109.797 175.258 109.982 175.258 110.167 175.258C110.952 180.118 111.754 184.972 112.573 189.82C112.021 189.908 111.466 189.97 110.908 190.006C110.106 185.184 109.304 180.361 108.502 175.536C108.897 175.502 109.267 175.409 109.612 175.258Z" fill="#17286D"/>
<path fill-rule="evenodd" clip-rule="evenodd" d="M92.6776 176.557C93.2328 176.557 93.788 176.557 94.3433 176.557C94.2202 181.472 94.1277 186.387 94.0657 191.304C93.5104 191.304 92.9552 191.304 92.4 191.304C92.4825 186.388 92.5749 181.472 92.6776 176.557Z" fill="#17286D"/>
<path fill-rule="evenodd" clip-rule="evenodd" d="M121.92 177.02C122.102 176.998 122.271 177.029 122.429 177.113C123.308 180.33 124.187 183.545 125.066 186.759C124.542 186.899 124.018 187.007 123.493 187.084C123.39 186.713 123.251 186.358 123.077 186.017C122.47 187.304 121.467 188.092 120.069 188.383C118.268 188.77 116.926 188.167 116.044 186.574C115.285 184.228 114.591 181.863 113.961 179.478C113.985 179.355 114.047 179.262 114.147 179.2C114.544 179.082 114.946 178.975 115.35 178.875C115.548 178.961 115.655 179.116 115.673 179.339C116.231 181.45 116.817 183.552 117.432 185.646C117.92 186.765 118.769 187.213 119.977 186.991C121.813 186.51 122.631 185.319 122.429 183.42C121.896 181.455 121.356 179.491 120.809 177.53C120.896 177.393 121.02 177.3 121.18 177.252C121.446 177.201 121.693 177.124 121.92 177.02Z" fill="#17286D"/>
<path fill-rule="evenodd" clip-rule="evenodd" d="M83.3312 180.174C84.7189 180.112 85.9836 180.467 87.1252 181.241C87.3985 181.557 87.6608 181.882 87.9118 182.214C88.019 181.786 88.0962 181.354 88.1432 180.916C88.6975 180.985 89.2527 181.047 89.8089 181.101C89.3542 184.468 88.9224 187.838 88.5133 191.212C87.9879 191.158 87.4635 191.096 86.9402 191.026C86.9714 190.591 86.9869 190.159 86.9864 189.728C85.5879 190.812 84.0301 191.105 82.3132 190.609C80.5883 189.888 79.5549 188.605 79.2132 186.759C78.8305 184.478 79.4938 182.576 81.2028 181.055C81.8592 180.604 82.5686 180.311 83.3312 180.174Z" fill="#17286D"/>
<path fill-rule="evenodd" clip-rule="evenodd" d="M98.5075 181.194C98.6621 181.194 98.8157 181.194 98.9702 181.194C98.9443 181.371 98.9748 181.526 99.0628 181.658C99.1673 183.639 99.3061 185.618 99.4792 187.594C99.6245 189.409 100.596 190.198 102.394 189.959C103.804 189.69 104.622 188.84 104.846 187.409C104.766 185.18 104.627 182.954 104.43 180.73C104.982 180.662 105.538 180.631 106.096 180.638C106.308 183.481 106.508 186.325 106.697 189.171C106.731 189.674 106.807 190.169 106.929 190.655C106.351 190.795 105.765 190.856 105.17 190.841C105.197 190.429 105.151 190.027 105.032 189.635C104.149 190.813 102.96 191.4 101.469 191.397C99.4172 191.274 98.2299 190.191 97.906 188.151C97.6312 185.867 97.4924 183.58 97.4896 181.287C97.8218 181.201 98.1614 181.17 98.5075 181.194Z" fill="#17286D"/>
<path fill-rule="evenodd" clip-rule="evenodd" d="M98.5075 181.194C98.6704 181.105 98.8555 181.075 99.0627 181.101C99.0627 181.287 99.0627 181.472 99.0627 181.658C98.9748 181.526 98.9443 181.371 98.9702 181.194C98.8157 181.194 98.662 181.194 98.5075 181.194Z" fill="#17286D"/>
<path fill-rule="evenodd" clip-rule="evenodd" d="M83.5162 181.565C86.3418 181.475 87.6836 182.836 87.5417 185.646C87.4033 186.9 86.8944 187.967 86.0148 188.846C84.2941 189.927 82.7363 189.726 81.3416 188.243C80.5125 186.528 80.5433 184.827 81.4341 183.142C81.9443 182.355 82.6383 181.83 83.5162 181.565Z" fill="white"/>
</g>
<defs>
<clipPath id="clip0_56_128">
<rect width="191" height="192" fill="white"/>
</clipPath>
</defs>
</svg>
